<svg width="22" height="22" viewBox="0 0 22 22" fill="none" xmlns="http://www.w3.org/2000/svg">
<path d="M18.3333 14.6667C18.3333 15.4 17.6917 16.0417 16.9583 16.0417C16.225 16.0417 15.5833 15.4 15.5833 14.6667C15.5833 13.9333 16.225 13.2917 16.9583 13.2917C17.6917 13.2917 18.3333 13.9333 18.3333 14.6667ZM21.0833 7.33333C20.5333 7.33333 20.1667 7.7 20.1667 8.25V19.25C20.1667 19.8 19.8 20.1667 19.25 20.1667H4.58333C3.025 20.1667 1.83333 18.975 1.83333 17.4167V8.25C2.65833 8.8 3.575 9.16667 4.58333 9.16667H13.75C14.3 9.16667 14.6667 8.8 14.6667 8.25C14.6667 7.7 14.3 7.33333 13.75 7.33333H4.58333C3.75833 7.33333 3.025 6.96667 2.56667 6.41667C3.025 5.86667 3.75833 5.5 4.58333 5.5H11C11.55 5.5 11.9167 5.13333 11.9167 4.58333C11.9167 4.03333 11.55 3.66667 11 3.66667H4.58333C1.83333 3.66667 0 5.95833 0 8.25V17.4167C0 19.9833 2.01667 22 4.58333 22H19.25C20.8083 22 22 20.8083 22 19.25V8.25C22 7.7 21.6333 7.33333 21.0833 7.33333ZM19.525 5.31667L18.3333 6.50833V0.916667C18.3333 0.366667 17.9667 0 17.4167 0C16.8667 0 16.5 0.366667 16.5 0.916667V6.50833L15.3083 5.31667C15.125 5.13333 14.9417 5.04167 14.6667 5.04167C14.3917 5.04167 14.2083 5.13333 14.025 5.31667C13.6583 5.68333 13.6583 6.23333 14.025 6.6L16.0417 8.61667C16.775 9.35 18.0583 9.35 18.7917 8.61667L20.8083 6.6C21.175 6.23333 21.175 5.68333 20.8083 5.31667C20.4417 4.95 19.8917 4.95 19.525 5.31667Z" fill="#C6183D"/>
</svg>
